<svg xmlns="http://www.w3.org/2000/svg" xmlns:xlink="http://www.w3.org/1999/xlink" viewBox="0,0,256,256" width="48px" height="48px"><g transform="translate(51.2,51.2) scale(0.6,0.6)"><g fill-opacity="0" fill="#ffffff" fill-rule="nonzero" stroke="none" stroke-width="1" stroke-linecap="butt" stroke-linejoin="miter" stroke-miterlimit="10" stroke-dasharray="" stroke-dashoffset="0" font-family="none" font-weight="none" font-size="none" text-anchor="none" style="mix-blend-mode: normal"><path d="M-85.33333,341.33333v-426.66667h426.66667v426.66667z" id="bgRectangle"></path></g><g fill="#ffffff" fill-rule="nonzero" stroke="none" stroke-width="1" stroke-linecap="butt" stroke-linejoin="miter" stroke-miterlimit="10" stroke-dasharray="" stroke-dashoffset="0" font-family="none" font-weight="none" font-size="none" text-anchor="none" style="mix-blend-mode: normal"><path d="M21.33333,341.33333c-58.91037,0 -106.66667,-47.75629 -106.66667,-106.66667v-213.33333c0,-58.91037 47.75629,-106.66667 106.66667,-106.66667h213.33333c58.91037,0 106.66667,47.75629 106.66667,106.66667v213.33333c0,58.91037 -47.75629,106.66667 -106.66667,106.66667z" id="shape"></path></g><g fill="none" fill-rule="nonzero" stroke="none" stroke-width="none" stroke-linecap="butt" stroke-linejoin="none" stroke-miterlimit="10" stroke-dasharray="" stroke-dashoffset="0" font-family="none" font-weight="none" font-size="none" text-anchor="none" style="mix-blend-mode: normal"><path transform="scale(5.33333,5.33333)" d="M18,14v-10h5v10zM18,35v-10h5v10zM18,22v-5h5v5zM10,46v-33h5v33zM26,43v-10h5v10zM26,22v-10h5v10zM26,30v-5h5v5zM34,35v-33h5v33z" id="strokeMainSVG" fill-opacity="0" fill="#fe2170" stroke-opacity="0" stroke="#fe2170" stroke-width="5" stroke-linejoin="round"></path><g transform="scale(5.33333,5.33333)" stroke="none" stroke-width="1" stroke-linejoin="miter"><rect x="18" y="4" width="5" height="10" fill="#1a237e"></rect><rect x="18" y="25" width="5" height="10" fill="#1a237e"></rect><rect x="18" y="17" width="5" height="5" fill="#fbc02d"></rect><rect x="10" y="13" width="5" height="33" fill="#1a237e"></rect><rect x="26" y="33" width="5" height="10" fill="#1a237e"></rect><rect x="26" y="12" width="5" height="10" fill="#1a237e"></rect><rect x="26" y="25" width="5" height="5" fill="#ff4081"></rect><rect x="34" y="2" width="5" height="33" fill="#1a237e"></rect></g></g></g></svg>